<svg xmlns="http://www.w3.org/2000/svg" version="1.1" xmlns:xlink="http://www.w3.org/1999/xlink" xmlns:svgjs="http://svgjs.dev/svgjs" viewBox="0 0 800 800"><defs><linearGradient x1="50%" y1="0%" x2="50%" y2="100%" id="ffflurry-grad" gradientTransform="rotate(270)"><stop stop-color="hsl(238, 42%, 21%)" stop-opacity="1" offset="0%"></stop><stop stop-color="hsl(1, 65%, 71%)" stop-opacity="1" offset="45%"></stop><stop stop-color="hsl(167, 84%, 87%)" stop-opacity="1" offset="100%"></stop></linearGradient></defs><rect width="100%" height="100%" fill="hsl(238, 42%, 21%)"></rect><g fill="url(#ffflurry-grad)"><rect width="33" height="2" x="210.5" y="272" rx="1" transform="rotate(35, 227, 273)" opacity="0.52"></rect><rect width="220" height="2" x="56" y="640" rx="1" transform="rotate(35, 166, 641)" opacity="0.43"></rect><rect width="33" height="2" x="124.5" y="76" rx="1" transform="rotate(35, 141, 77)" opacity="0.63"></rect><rect width="70" height="2" x="634" y="27" rx="1" transform="rotate(35, 669, 28)" opacity="0.90"></rect><rect width="97" height="2" x="645.5" y="431" rx="1" transform="rotate(35, 694, 432)" opacity="0.13"></rect><rect width="208" height="2" x="182" y="29" rx="1" transform="rotate(35, 286, 30)" opacity="0.38"></rect><rect width="236" height="2" x="-80" y="216" rx="1" transform="rotate(35, 38, 217)" opacity="0.83"></rect><rect width="169" height="2" x="384.5" y="151" rx="1" transform="rotate(35, 469, 152)" opacity="0.89"></rect><rect width="180" height="2" x="507" y="682" rx="1" transform="rotate(35, 597, 683)" opacity="0.17"></rect><rect width="116" height="2" x="673" y="184" rx="1" transform="rotate(35, 731, 185)" opacity="0.28"></rect><rect width="35" height="2" x="629.5" y="773" rx="1" transform="rotate(35, 647, 774)" opacity="0.27"></rect><rect width="247" height="2" x="-53.5" y="432" rx="1" transform="rotate(35, 70, 433)" opacity="0.78"></rect><rect width="163" height="2" x="519.5" y="51" rx="1" transform="rotate(35, 601, 52)" opacity="0.58"></rect><rect width="113" height="2" x="501.5" y="497" rx="1" transform="rotate(35, 558, 498)" opacity="0.79"></rect><rect width="47" height="2" x="300.5" y="207" rx="1" transform="rotate(35, 324, 208)" opacity="0.09"></rect><rect width="37" height="2" x="343.5" y="531" rx="1" transform="rotate(35, 362, 532)" opacity="0.20"></rect><rect width="128" height="2" x="336" y="149" rx="1" transform="rotate(35, 400, 150)" opacity="0.44"></rect><rect width="35" height="2" x="175.5" y="104" rx="1" transform="rotate(35, 193, 105)" opacity="0.44"></rect><rect width="175" height="2" x="681.5" y="270" rx="1" transform="rotate(35, 769, 271)" opacity="0.88"></rect><rect width="108" height="2" x="179" y="148" rx="1" transform="rotate(35, 233, 149)" opacity="0.68"></rect><rect width="175" height="2" x="527.5" y="499" rx="1" transform="rotate(35, 615, 500)" opacity="0.57"></rect><rect width="214" height="2" x="148" y="619" rx="1" transform="rotate(35, 255, 620)" opacity="0.12"></rect><rect width="275" height="2" x="375.5" y="691" rx="1" transform="rotate(35, 513, 692)" opacity="0.80"></rect><rect width="44" height="2" x="615" y="592" rx="1" transform="rotate(35, 637, 593)" opacity="0.18"></rect><rect width="57" height="2" x="-4.5" y="707" rx="1" transform="rotate(35, 24, 708)" opacity="0.39"></rect><rect width="182" height="2" x="358" y="736" rx="1" transform="rotate(35, 449, 737)" opacity="0.21"></rect><rect width="69" height="2" x="478.5" y="27" rx="1" transform="rotate(35, 513, 28)" opacity="0.56"></rect><rect width="44" height="2" x="669" y="87" rx="1" transform="rotate(35, 691, 88)" opacity="0.09"></rect><rect width="185" height="2" x="264.5" y="267" rx="1" transform="rotate(35, 357, 268)" opacity="0.73"></rect><rect width="79" height="2" x="706.5" y="569" rx="1" transform="rotate(35, 746, 570)" opacity="0.83"></rect><rect width="112" height="2" x="117" y="261" rx="1" transform="rotate(35, 173, 262)" opacity="0.13"></rect><rect width="102" height="2" x="526" y="172" rx="1" transform="rotate(35, 577, 173)" opacity="0.34"></rect><rect width="98" height="2" x="27" y="716" rx="1" transform="rotate(35, 76, 717)" opacity="0.12"></rect><rect width="73" height="2" x="342.5" y="686" rx="1" transform="rotate(35, 379, 687)" opacity="0.49"></rect><rect width="157" height="2" x="595.5" y="219" rx="1" transform="rotate(35, 674, 220)" opacity="0.17"></rect><rect width="94" height="2" x="579" y="139" rx="1" transform="rotate(35, 626, 140)" opacity="0.96"></rect><rect width="127" height="2" x="484.5" y="88" rx="1" transform="rotate(35, 548, 89)" opacity="0.51"></rect><rect width="178" height="2" x="307" y="95" rx="1" transform="rotate(35, 396, 96)" opacity="0.39"></rect><rect width="151" height="2" x="621.5" y="514" rx="1" transform="rotate(35, 697, 515)" opacity="0.49"></rect><rect width="126" height="2" x="270" y="68" rx="1" transform="rotate(35, 333, 69)" opacity="0.77"></rect><rect width="58" height="2" x="695" y="317" rx="1" transform="rotate(35, 724, 318)" opacity="0.82"></rect><rect width="45" height="2" x="687.5" y="262" rx="1" transform="rotate(35, 710, 263)" opacity="0.99"></rect><rect width="86" height="2" x="73" y="724" rx="1" transform="rotate(35, 116, 725)" opacity="0.83"></rect><rect width="103" height="2" x="361.5" y="422" rx="1" transform="rotate(35, 413, 423)" opacity="0.22"></rect><rect width="52" height="2" x="313" y="604" rx="1" transform="rotate(35, 339, 605)" opacity="0.53"></rect><rect width="46" height="2" x="87" y="227" rx="1" transform="rotate(35, 110, 228)" opacity="0.69"></rect><rect width="90" height="2" x="183" y="19" rx="1" transform="rotate(35, 228, 20)" opacity="0.41"></rect><rect width="188" height="2" x="3" y="771" rx="1" transform="rotate(35, 97, 772)" opacity="0.25"></rect><rect width="186" height="2" x="190" y="774" rx="1" transform="rotate(35, 283, 775)" opacity="0.84"></rect><rect width="63" height="2" x="389.5" y="584" rx="1" transform="rotate(35, 421, 585)" opacity="0.62"></rect><rect width="235" height="2" x="387.5" y="303" rx="1" transform="rotate(35, 505, 304)" opacity="0.55"></rect><rect width="82" height="2" x="531" y="744" rx="1" transform="rotate(35, 572, 745)" opacity="0.59"></rect><rect width="152" height="2" x="285" y="767" rx="1" transform="rotate(35, 361, 768)" opacity="0.13"></rect><rect width="194" height="2" x="237" y="712" rx="1" transform="rotate(35, 334, 713)" opacity="0.13"></rect><rect width="157" height="2" x="309.5" y="208" rx="1" transform="rotate(35, 388, 209)" opacity="0.25"></rect><rect width="128" height="2" x="691" y="645" rx="1" transform="rotate(35, 755, 646)" opacity="0.49"></rect><rect width="241" height="2" x="172.5" y="473" rx="1" transform="rotate(35, 293, 474)" opacity="0.45"></rect><rect width="154" height="2" x="688" y="109" rx="1" transform="rotate(35, 765, 110)" opacity="0.88"></rect><rect width="133" height="2" x="535.5" y="625" rx="1" transform="rotate(35, 602, 626)" opacity="0.95"></rect><rect width="91" height="2" x="361.5" y="321" rx="1" transform="rotate(35, 407, 322)" opacity="0.81"></rect><rect width="259" height="2" x="-89.5" y="496" rx="1" transform="rotate(35, 40, 497)" opacity="0.16"></rect><rect width="76" height="2" x="732" y="337" rx="1" transform="rotate(35, 770, 338)" opacity="0.81"></rect><rect width="138" height="2" x="103" y="698" rx="1" transform="rotate(35, 172, 699)" opacity="0.50"></rect><rect width="184" height="2" x="526" y="437" rx="1" transform="rotate(35, 618, 438)" opacity="0.15"></rect><rect width="32" height="2" x="528" y="356" rx="1" transform="rotate(35, 544, 357)" opacity="0.78"></rect><rect width="257" height="2" x="5.5" y="145" rx="1" transform="rotate(35, 134, 146)" opacity="0.73"></rect><rect width="221" height="2" x="153.5" y="204" rx="1" transform="rotate(35, 264, 205)" opacity="0.92"></rect><rect width="181" height="2" x="-20.5" y="664" rx="1" transform="rotate(35, 70, 665)" opacity="0.08"></rect><rect width="111" height="2" x="163.5" y="679" rx="1" transform="rotate(35, 219, 680)" opacity="0.39"></rect><rect width="44" height="2" x="600" y="549" rx="1" transform="rotate(35, 622, 550)" opacity="0.61"></rect><rect width="186" height="2" x="576" y="475" rx="1" transform="rotate(35, 669, 476)" opacity="0.65"></rect><rect width="115" height="2" x="703.5" y="465" rx="1" transform="rotate(35, 761, 466)" opacity="0.43"></rect><rect width="144" height="2" x="393" y="553" rx="1" transform="rotate(35, 465, 554)" opacity="0.95"></rect><rect width="207" height="2" x="60.5" y="442" rx="1" transform="rotate(35, 164, 443)" opacity="0.99"></rect><rect width="117" height="2" x="56.5" y="23" rx="1" transform="rotate(35, 115, 24)" opacity="0.42"></rect><rect width="75" height="2" x="2.5" y="126" rx="1" transform="rotate(35, 40, 127)" opacity="0.58"></rect><rect width="187" height="2" x="209.5" y="546" rx="1" transform="rotate(35, 303, 547)" opacity="0.75"></rect><rect width="142" height="2" x="-31" y="564" rx="1" transform="rotate(35, 40, 565)" opacity="0.80"></rect><rect width="123" height="2" x="467.5" y="432" rx="1" transform="rotate(35, 529, 433)" opacity="0.94"></rect><rect width="264" height="2" x="4" y="377" rx="1" transform="rotate(35, 136, 378)" opacity="0.21"></rect><rect width="173" height="2" x="378.5" y="369" rx="1" transform="rotate(35, 465, 370)" opacity="0.48"></rect><rect width="213" height="2" x="466.5" y="285" rx="1" transform="rotate(35, 573, 286)" opacity="0.10"></rect><rect width="192" height="2" x="524" y="376" rx="1" transform="rotate(35, 620, 377)" opacity="0.50"></rect><rect width="74" height="2" x="180" y="483" rx="1" transform="rotate(35, 217, 484)" opacity="0.20"></rect><rect width="174" height="2" x="174" y="93" rx="1" transform="rotate(35, 261, 94)" opacity="0.37"></rect><rect width="98" height="2" x="266" y="136" rx="1" transform="rotate(35, 315, 137)" opacity="0.58"></rect><rect width="124" height="2" x="231" y="670" rx="1" transform="rotate(35, 293, 671)" opacity="0.17"></rect><rect width="47" height="2" x="525.5" y="565" rx="1" transform="rotate(35, 549, 566)" opacity="0.66"></rect><rect width="147" height="2" x="79.5" y="736" rx="1" transform="rotate(35, 153, 737)" opacity="0.54"></rect><rect width="120" height="2" x="465" y="227" rx="1" transform="rotate(35, 525, 228)" opacity="0.38"></rect><rect width="76" height="2" x="513" y="623" rx="1" transform="rotate(35, 551, 624)" opacity="0.34"></rect><rect width="51" height="2" x="726.5" y="745" rx="1" transform="rotate(35, 752, 746)" opacity="0.33"></rect><rect width="90" height="2" x="164" y="355" rx="1" transform="rotate(35, 209, 356)" opacity="0.07"></rect><rect width="102" height="2" x="623" y="644" rx="1" transform="rotate(35, 674, 645)" opacity="0.25"></rect><rect width="184" height="2" x="191" y="267" rx="1" transform="rotate(35, 283, 268)" opacity="0.38"></rect><rect width="148" height="2" x="190" y="412" rx="1" transform="rotate(35, 264, 413)" opacity="0.61"></rect><rect width="49" height="2" x="648.5" y="307" rx="1" transform="rotate(35, 673, 308)" opacity="0.46"></rect><rect width="97" height="2" x="462.5" y="540" rx="1" transform="rotate(35, 511, 541)" opacity="0.16"></rect><rect width="66" height="2" x="301" y="318" rx="1" transform="rotate(35, 334, 319)" opacity="0.10"></rect><rect width="174" height="2" x="608" y="572" rx="1" transform="rotate(35, 695, 573)" opacity="0.46"></rect><rect width="64" height="2" x="342" y="24" rx="1" transform="rotate(35, 374, 25)" opacity="0.53"></rect><rect width="83" height="2" x="-25.5" y="770" rx="1" transform="rotate(35, 16, 771)" opacity="0.19"></rect><rect width="136" height="2" x="601" y="712" rx="1" transform="rotate(35, 669, 713)" opacity="0.85"></rect><rect width="242" height="2" x="300" y="511" rx="1" transform="rotate(35, 421, 512)" opacity="0.37"></rect><rect width="107" height="2" x="131.5" y="578" rx="1" transform="rotate(35, 185, 579)" opacity="0.70"></rect><rect width="41" height="2" x="550.5" y="408" rx="1" transform="rotate(35, 571, 409)" opacity="0.97"></rect><rect width="121" height="2" x="428.5" y="497" rx="1" transform="rotate(35, 489, 498)" opacity="0.52"></rect><rect width="229" height="2" x="-90.5" y="361" rx="1" transform="rotate(35, 24, 362)" opacity="0.45"></rect><rect width="107" height="2" x="65.5" y="670" rx="1" transform="rotate(35, 119, 671)" opacity="0.31"></rect><rect width="58" height="2" x="603" y="261" rx="1" transform="rotate(35, 632, 262)" opacity="0.37"></rect><rect width="30" height="2" x="133" y="779" rx="1" transform="rotate(35, 148, 780)" opacity="0.09"></rect><rect width="78" height="2" x="11" y="48" rx="1" transform="rotate(35, 50, 49)" opacity="0.24"></rect><rect width="122" height="2" x="389" y="260" rx="1" transform="rotate(35, 450, 261)" opacity="0.44"></rect><rect width="37" height="2" x="458.5" y="97" rx="1" transform="rotate(35, 477, 98)" opacity="0.47"></rect><rect width="92" height="2" x="212" y="326" rx="1" transform="rotate(35, 258, 327)" opacity="0.58"></rect><rect width="138" height="2" x="559" y="328" rx="1" transform="rotate(35, 628, 329)" opacity="0.85"></rect><rect width="36" height="2" x="680" y="376" rx="1" transform="rotate(35, 698, 377)" opacity="0.71"></rect><rect width="191" height="2" x="15.5" y="596" rx="1" transform="rotate(35, 111, 597)" opacity="0.89"></rect><rect width="191" height="2" x="506.5" y="217" rx="1" transform="rotate(35, 602, 218)" opacity="0.35"></rect><rect width="116" height="2" x="457" y="771" rx="1" transform="rotate(35, 515, 772)" opacity="0.23"></rect><rect width="34" height="2" x="741" y="32" rx="1" transform="rotate(35, 758, 33)" opacity="0.52"></rect><rect width="29" height="2" x="162.5" y="25" rx="1" transform="rotate(35, 177, 26)" opacity="0.89"></rect><rect width="160" height="2" x="354" y="684" rx="1" transform="rotate(35, 434, 685)" opacity="0.24"></rect><rect width="143" height="2" x="706.5" y="539" rx="1" transform="rotate(35, 778, 540)" opacity="0.25"></rect><rect width="65" height="2" x="315.5" y="398" rx="1" transform="rotate(35, 348, 399)" opacity="0.52"></rect><rect width="94" height="2" x="722" y="396" rx="1" transform="rotate(35, 769, 397)" opacity="0.74"></rect><rect width="112" height="2" x="474" y="149" rx="1" transform="rotate(35, 530, 150)" opacity="0.29"></rect><rect width="169" height="2" x="377.5" y="200" rx="1" transform="rotate(35, 462, 201)" opacity="0.29"></rect><rect width="205" height="2" x="31.5" y="307" rx="1" transform="rotate(35, 134, 308)" opacity="0.27"></rect><rect width="175" height="2" x="352.5" y="40" rx="1" transform="rotate(35, 440, 41)" opacity="0.91"></rect><rect width="132" height="2" x="145" y="394" rx="1" transform="rotate(35, 211, 395)" opacity="0.32"></rect><rect width="149" height="2" x="121.5" y="203" rx="1" transform="rotate(35, 196, 204)" opacity="0.88"></rect><rect width="36" height="2" x="224" y="546" rx="1" transform="rotate(35, 242, 547)" opacity="0.39"></rect><rect width="91" height="2" x="150.5" y="320" rx="1" transform="rotate(35, 196, 321)" opacity="0.22"></rect><rect width="40" height="2" x="237" y="728" rx="1" transform="rotate(35, 257, 729)" opacity="0.83"></rect><rect width="184" height="2" x="-60" y="629" rx="1" transform="rotate(35, 32, 630)" opacity="0.74"></rect><rect width="69" height="2" x="170.5" y="764" rx="1" transform="rotate(35, 205, 765)" opacity="0.28"></rect><rect width="171" height="2" x="44.5" y="515" rx="1" transform="rotate(35, 130, 516)" opacity="0.59"></rect><rect width="144" height="2" x="148" y="61" rx="1" transform="rotate(35, 220, 62)" opacity="0.95"></rect><rect width="69" height="2" x="394.5" y="778" rx="1" transform="rotate(35, 429, 779)" opacity="0.39"></rect><rect width="59" height="2" x="23.5" y="769" rx="1" transform="rotate(35, 53, 770)" opacity="0.93"></rect><rect width="88" height="2" x="258" y="358" rx="1" transform="rotate(35, 302, 359)" opacity="0.49"></rect><rect width="194" height="2" x="375" y="446" rx="1" transform="rotate(35, 472, 447)" opacity="0.70"></rect><rect width="210" height="2" x="290" y="631" rx="1" transform="rotate(35, 395, 632)" opacity="0.80"></rect><rect width="54" height="2" x="660" y="151" rx="1" transform="rotate(35, 687, 152)" opacity="0.14"></rect><rect width="52" height="2" x="437" y="645" rx="1" transform="rotate(35, 463, 646)" opacity="0.35"></rect><rect width="125" height="2" x="713.5" y="200" rx="1" transform="rotate(35, 776, 201)" opacity="0.26"></rect><rect width="270" height="2" x="-68" y="315" rx="1" transform="rotate(35, 67, 316)" opacity="0.44"></rect><rect width="109" height="2" x="441.5" y="611" rx="1" transform="rotate(35, 496, 612)" opacity="0.36"></rect><rect width="50" height="2" x="339" y="468" rx="1" transform="rotate(35, 364, 469)" opacity="0.86"></rect></g></svg>